<svg id="Layer_1" data-name="Layer 1" xmlns="http://www.w3.org/2000/svg" xmlns:xlink="http://www.w3.org/1999/xlink" width="180" height="100"><defs><style>.cls-2{fill:#333}</style><linearGradient id="linear-gradient" x1="57.901" y1="83.019" x2="117.312" y2="25.608" gradientTransform="matrix(1 0 0 -1 0 102)" gradientUnits="userSpaceOnUse"><stop offset="0" stop-color="#dff4ff"/><stop offset=".098" stop-color="#d6eaf5"/><stop offset=".268" stop-color="#bfd0d9"/><stop offset=".488" stop-color="#98a5ac"/><stop offset=".747" stop-color="#646b6e"/><stop offset="1" stop-color="#2b2b2b"/></linearGradient><radialGradient id="radial-gradient" cx="61.65" cy="78.148" r="39.781" gradientTransform="matrix(1 0 0 -1 0 102)" gradientUnits="userSpaceOnUse"><stop offset="0" stop-color="#fff"/><stop offset=".306" stop-color="#a8a8a8"/><stop offset=".646" stop-color="#4f4f4f"/><stop offset=".885" stop-color="#161616"/><stop offset="1"/></radialGradient><linearGradient id="linear-gradient-2" x1="822.531" y1="-999.55" x2="860.37" y2="-1036.115" gradientTransform="matrix(-1 0 0 1 932.976 1069.306)" gradientUnits="userSpaceOnUse"><stop offset="0" stop-color="#dff4ff"/><stop offset=".086" stop-color="#d6eaf5"/><stop offset=".233" stop-color="#bed0d9"/><stop offset=".424" stop-color="#96a4ac"/><stop offset=".652" stop-color="#5f686d"/><stop offset=".907" stop-color="#1a1d1e"/><stop offset="1"/></linearGradient><radialGradient id="radial-gradient-2" cx="54.506" cy="82.199" r="95.588" gradientTransform="matrix(1 0 0 -1 0 102)" gradientUnits="userSpaceOnUse"><stop offset="0" stop-color="#fff"/><stop offset=".31" stop-color="#fdfdfd"/><stop offset=".451" stop-color="#f6f6f6"/><stop offset=".557" stop-color="#e9e9e9"/><stop offset=".646" stop-color="#d7d7d7"/><stop offset=".724" stop-color="#bfbfbf"/><stop offset=".794" stop-color="#a2a2a2"/><stop offset=".859" stop-color="gray"/><stop offset=".92" stop-color="#575757"/><stop offset=".975" stop-color="#2b2b2b"/><stop offset="1" stop-color="#141414"/></radialGradient><radialGradient id="radial-gradient-3" cx="54.502" cy="82.199" r="95.597" xlink:href="#radial-gradient-2"/><radialGradient id="radial-gradient-4" cx="54.496" cy="82.227" r="95.67" xlink:href="#radial-gradient-2"/><radialGradient id="radial-gradient-5" cx="71.626" cy="68.947" r="25.783" gradientTransform="matrix(1 0 0 -1 0 102)" gradientUnits="userSpaceOnUse"><stop offset="0" stop-color="#e6e6e6"/><stop offset=".105" stop-color="#d6d6d6"/><stop offset=".307" stop-color="#adadad"/><stop offset=".588" stop-color="#6c6c6c"/><stop offset=".933" stop-color="#121212"/><stop offset="1"/></radialGradient><radialGradient id="radial-gradient-6" cx="78.678" cy="65.479" r="37.496" gradientTransform="matrix(1 0 0 -1 0 102)" gradientUnits="userSpaceOnUse"><stop offset="0" stop-color="#fff"/><stop offset=".343" stop-color="#fdfdfd"/><stop offset=".481" stop-color="#f6f6f6"/><stop offset=".582" stop-color="#eaeaea"/><stop offset=".665" stop-color="#d8d8d8"/><stop offset=".737" stop-color="#c2c2c2"/><stop offset=".802" stop-color="#a6a6a6"/><stop offset=".86" stop-color="#848484"/><stop offset=".913" stop-color="#5f5f5f"/><stop offset=".949" stop-color="#404040"/><stop offset=".957" stop-color="#404040"/><stop offset="1" stop-color="#404040"/><stop offset="1"/></radialGradient><radialGradient id="radial-gradient-7" cx="67.668" cy="79.693" r="66.406" gradientTransform="matrix(1 0 0 -1 0 102)" gradientUnits="userSpaceOnUse"><stop offset=".169" stop-color="#fff"/><stop offset=".196" stop-color="#e0eff7"/><stop offset=".241" stop-color="#b2d9ec"/><stop offset=".287" stop-color="#8bc5e2"/><stop offset=".335" stop-color="#6bb5da"/><stop offset=".384" stop-color="#52a9d4"/><stop offset=".436" stop-color="#41a0cf"/><stop offset=".491" stop-color="#369bcd"/><stop offset=".556" stop-color="#39c"/><stop offset=".606" stop-color="#3396c8"/><stop offset=".655" stop-color="#328ebc"/><stop offset=".705" stop-color="#3180a8"/><stop offset=".754" stop-color="#2f6d8c"/><stop offset=".803" stop-color="#2d5468"/><stop offset=".851" stop-color="#2a373d"/><stop offset=".871" stop-color="#292929"/></radialGradient><radialGradient id="radial-gradient-8" cx="67.668" cy="79.693" r="66.405" xlink:href="#radial-gradient-7"/><radialGradient id="radial-gradient-9" cx="71.978" cy="68.622" r="25.289" xlink:href="#radial-gradient-5"/><linearGradient id="linear-gradient-3" x1="86.684" y1="74.937" x2="111.346" y2="51.105" gradientTransform="matrix(1 0 0 -1 0 102)" gradientUnits="userSpaceOnUse"><stop offset="0" stop-color="#f0f4ff"/><stop offset=".109" stop-color="#ebeff9"/><stop offset=".247" stop-color="#dce0ea"/><stop offset=".403" stop-color="#c4c7cf"/><stop offset=".57" stop-color="#a2a4ab"/><stop offset=".747" stop-color="#76777c"/><stop offset=".929" stop-color="#414243"/><stop offset="1" stop-color="#2b2b2b"/></linearGradient><linearGradient id="linear-gradient-4" x1="66.667" y1="54.816" x2="91.329" y2="30.984" xlink:href="#linear-gradient-3"/><linearGradient id="linear-gradient-5" x1="78.598" y1="63.314" x2="91.386" y2="50.957" gradientTransform="matrix(1 0 0 -1 0 102)" gradientUnits="userSpaceOnUse"><stop offset="0" stop-color="#c2d7e8"/><stop offset=".134" stop-color="#bacfe1"/><stop offset=".343" stop-color="#a4bacd"/><stop offset=".6" stop-color="#8098ac"/><stop offset=".894" stop-color="#4e697f"/><stop offset="1" stop-color="#3a566d"/></linearGradient><linearGradient id="linear-gradient-6" x1="72.193" y1="60.286" x2="96.607" y2="36.694" gradientTransform="matrix(1 0 0 -1 0 102)" gradientUnits="userSpaceOnUse"><stop offset="0" stop-color="#f0f4ff"/><stop offset=".097" stop-color="#e8ebf6"/><stop offset=".257" stop-color="#d1d4dd"/><stop offset=".459" stop-color="#abaeb5"/><stop offset=".695" stop-color="#78797d"/><stop offset=".958" stop-color="#363637"/><stop offset="1" stop-color="#2b2b2b"/></linearGradient><linearGradient id="linear-gradient-7" x1="90.188" y1="51.535" x2="98.751" y2="43.259" gradientTransform="matrix(1 0 0 -1 0 102)" gradientUnits="userSpaceOnUse"><stop offset="0" stop-color="#d9def0"/><stop offset=".123" stop-color="#d4daec"/><stop offset=".263" stop-color="#c7cfe2"/><stop offset=".411" stop-color="#b0bcd1"/><stop offset=".566" stop-color="#90a1b8"/><stop offset=".725" stop-color="#677f99"/><stop offset=".885" stop-color="#355674"/><stop offset=".972" stop-color="#173d5d"/></linearGradient><linearGradient id="linear-gradient-8" x1="81.427" y1="69.24" x2="105.815" y2="45.674" xlink:href="#linear-gradient-3"/></defs><path d="M90 22a28 28 0 1 0 28 28 28 28 0 0 0-28-28zm0 54.6A26.6 26.6 0 1 1 116.6 50 26.6 26.6 0 0 1 90 76.6z" fill="url(#linear-gradient)"/><path class="cls-2" d="M116.8 50A26.8 26.8 0 1 1 90 23.2 26.8 26.8 0 0 1 116.8 50z"/><path d="M116.6 50A26.6 26.6 0 1 1 90 23.4 26.6 26.6 0 0 1 116.6 50z" fill="url(#radial-gradient)"/><path d="M107.834 50A17.834 17.834 0 1 1 90 32.167 17.834 17.834 0 0 1 107.834 50z" fill="url(#linear-gradient-2)"/><path d="M90.714 31.685l1.853-4.91v4.91h1.407v-7.032h-2.115l-1.923 5.035h.019l-1.924-5.035h-2.114v7.032h1.407v-4.91l1.852 4.91h1.538zM110.023 34.838l-2.404 3.505 3.776-1.857 1.024 1.228-5.942 2.984-1.201-1.454 2.303-3.473-.013-.017-3.832 1.64-1.214-1.444 4.007-5.306 1.024 1.229-2.509 3.378 3.883-1.732 1.098 1.319z"/><path class="cls-2" d="M77.546 33.494a1.794 1.794 0 0 0-2.261-.206 1.563 1.563 0 0 0 .01-1.05 2.49 2.49 0 0 0-.768-.97c-.944-.792-1.938-.116-2.648.73l-3.431 4.089 5.394 4.526 3.619-4.313c.827-.986.955-1.963.085-2.808zm-6.978 1.973l2.061-2.457a.841.841 0 0 1 1.126.019.741.741 0 0 1 .126 1.08l-2.038 2.427zm5.686.408l-2.148 2.561-1.346-1.131 2.165-2.581a.882.882 0 0 1 1.329 1.151z"/><path fill="url(#radial-gradient-2)" d="M90.729 31.413l1.853-4.91v4.91h1.407v-7.032h-2.115l-1.923 5.035h.018l-1.923-5.035h-2.114v7.032h1.407v-4.91l1.852 4.91h1.538z"/><path fill="url(#radial-gradient-3)" d="M110.037 34.366l-2.403 3.505 3.776-1.858 1.023 1.229-5.942 2.984-1.2-1.454 2.303-3.473-.013-.018-3.833 1.641-1.213-1.445 4.007-5.305 1.024 1.228-2.509 3.379 3.882-1.731 1.098 1.318z"/><path d="M77.3 33.356a1.793 1.793 0 0 0-2.261-.207 1.565 1.565 0 0 0 .009-1.049 2.477 2.477 0 0 0-.769-.971c-.944-.792-1.937-.116-2.645.731L68.2 35.949l5.395 4.526 3.618-4.312c.826-.986.955-1.962.086-2.807zm-6.979 1.972l2.061-2.456a.842.842 0 0 1 1.126.018.738.738 0 0 1 .125 1.079L71.591 36.4zm5.679.408L73.855 38.3l-1.348-1.131 2.166-2.581A.883.883 0 0 1 76 35.736z" fill="url(#radial-gradient-4)"/><path d="M72.76 50A17.24 17.24 0 1 1 90 67.24 17.24 17.24 0 0 1 72.76 50z" fill="url(#radial-gradient-5)"/><path d="M73.256 50A16.745 16.745 0 1 1 90 66.745 16.745 16.745 0 0 1 73.256 50z" fill="url(#radial-gradient-6)"/><path d="M73.23 50H90V33.23A16.769 16.769 0 0 0 73.23 50z" fill="url(#radial-gradient-7)"/><path d="M90 50v16.771A16.771 16.771 0 0 0 106.771 50z" fill="url(#radial-gradient-8)"/><path fill="url(#radial-gradient-9)" d="M106.91 49.702H90.297V33.09h-.594v16.612H73.091v.595h16.612V66.91h.594V50.297h16.613v-.595z"/><path d="M90.3 33.561A16.441 16.441 0 0 1 106.441 49.7h.3A16.738 16.738 0 0 0 90.3 33.263v.3z" fill="url(#linear-gradient-3)"/><path d="M73.53 49.7A16.463 16.463 0 0 1 89.7 33.536v-.3A16.762 16.762 0 0 0 73.233 49.7z" fill="#c2d7e8"/><path d="M89.7 66.44A16.441 16.441 0 0 1 73.56 50.3h-.3A16.738 16.738 0 0 0 89.7 66.737v-.3z" fill="url(#linear-gradient-4)"/><path d="M106.441 50.3A16.443 16.443 0 0 1 90.3 66.44v.3a16.739 16.739 0 0 0 16.438-16.44z" fill="#12404f"/><path fill="url(#linear-gradient-5)" d="M89.385 33.238v16.138H73.248v.318H89.703V33.238h-.318z"/><path fill="url(#linear-gradient-6)" d="M89.358 66.581V50.638H73.381v-.315h16.291v16.258h-.314z"/><path fill="url(#linear-gradient-7)" d="M90.638 66.581V50.638h15.943v-.315H90.325v16.258h.313z"/><path fill="url(#linear-gradient-8)" d="M90.638 33.381v15.943h15.943v.314H90.325V33.381h.313z"/></svg>