<svg id="Layer_1" data-name="Layer 1" xmlns="http://www.w3.org/2000/svg" width="180" height="100"><defs><style>.cls-2{fill:#fff}</style></defs><g id="layer1"><path id="path737" d="M90 34.156c-23.454 0-42.254 7.03-42.254 15.844 0 8.76 18.954 15.844 42.254 15.844S132.254 58.736 132.254 50 113.3 34.156 90 34.156" fill="#003478"/><path id="path741" class="cls-2" d="M106.643 53.356c.012.073.107.142.2.175.034.011.051.034.015.111a9.074 9.074 0 0 1-.835 1.379 5.159 5.159 0 0 1-1.059 1.146c-.624.516-1.49 1.079-2.207.7a1.086 1.086 0 0 1-.45-.972 5.077 5.077 0 0 1 1.3-3.078c1.015-1.25 2.138-1.9 2.875-1.544.762.364.519 1.246.177 1.939a.2.2 0 0 0-.015.143m8.18-7.9c.055-.1 0-.168-.125-.168h-2.135c-.158 0-.24.018-.314.166-.245.469-3.229 4.941-3.785 5.81-.094.132-.208.114-.221-.038a1.869 1.869 0 0 0-1.2-1.393 3.069 3.069 0 0 0-1.6-.184 5.706 5.706 0 0 0-2.625 1.234c-1.159.881-2.158 2.023-3.449 2.866-.7.459-1.669.86-2.314.262-.585-.542-.519-1.745.375-2.675a.1.1 0 0 1 .19.071 1.177 1.177 0 0 0 .338 1.133 1.275 1.275 0 0 0 1.426.156 1.87 1.87 0 0 0 .991-1.431 1.627 1.627 0 0 0-1.5-1.854 2.988 2.988 0 0 0-2.149.779 4.1 4.1 0 0 0-.847.93c-.074.106-.186.116-.183-.039.034-1.216-.468-1.9-1.473-1.922a3.741 3.741 0 0 0-2.263.922 20.963 20.963 0 0 0-2 2.042c-.084.088-.156.084-.179-.086a4.092 4.092 0 0 0-.6-2.14.494.494 0 0 0-.642-.158 4.643 4.643 0 0 0-.756.451.425.425 0 0 0-.128.48 5.628 5.628 0 0 1-.207 3.727 4.111 4.111 0 0 1-2.344 2.336 1.543 1.543 0 0 1-1.81-.489c-.6-.826-.355-2.261.534-3.453a6.686 6.686 0 0 1 3.049-2.145A.178.178 0 0 0 87 50.4c-.062-.186-.16-.439-.2-.555-.1-.276-.394-.321-.749-.282a6.353 6.353 0 0 0-2.3.769 7.833 7.833 0 0 0-3.3 4.078 4.168 4.168 0 0 1-.6 1.112 10.967 10.967 0 0 1-1.376 1.335.245.245 0 0 0-.056.281 2.979 2.979 0 0 0 .533.7.314.314 0 0 0 .3-.06 7.236 7.236 0 0 0 1.351-1.2c.1-.122.2-.071.255.113a2.98 2.98 0 0 0 1.921 2.043c1.758.593 3.582-.265 4.959-1.76a19.72 19.72 0 0 0 1.526-1.975A18.365 18.365 0 0 1 92.29 51.7c.489-.373 1.069-.658 1.36-.469.234.152.31.5-.066 1.186-1.361 2.486-3.364 5.407-3.732 6.116-.067.123-.007.219.121.219h2.065a.244.244 0 0 0 .21-.131c1.045-1.635 2.028-3.192 3.082-4.8.059-.1.113-.023.115.019a2.677 2.677 0 0 0 .336 1.219 1.826 1.826 0 0 0 1.589.891 2.98 2.98 0 0 0 1.287-.271 4.511 4.511 0 0 0 1.058-.568c.157-.109.185.074.181.1a3.088 3.088 0 0 0 1.347 3.475c1.544.761 3.241-.309 4.217-1.275.1-.093.2-.083.208.117a1.787 1.787 0 0 0 .492 1.113c.818.821 2.469.5 4.126-.786a20.841 20.841 0 0 0 3.182-3.209.144.144 0 0 0-.008-.2c-.153-.16-.374-.343-.526-.485a.192.192 0 0 0-.229 0 26.634 26.634 0 0 1-3.3 3.022c-.452.316-1.173.571-1.5.132a.719.719 0 0 1 .011-.714c.391-.974 6.579-10.4 6.9-10.952"/><path id="path745" class="cls-2" d="M85.707 46.591c.027.14.081.167.145.156a1.517 1.517 0 0 0 .864-.623c.186-.273.273-.666.088-.823a.489.489 0 0 0-.632.074 1.4 1.4 0 0 0-.465 1.217M69.934 58.72a4.311 4.311 0 0 1-4.573-3.878 4.982 4.982 0 0 1 1.031-3.592 5.109 5.109 0 0 1 2.833-1.82 1.062 1.062 0 0 1 .928.191.5.5 0 0 1-.08.823 4.767 4.767 0 0 0-2.1 1.935 2.377 2.377 0 0 0 .118 2.452c.927 1.4 3.51 1.437 5.911-.794a20.512 20.512 0 0 0 1.668-1.692 37.548 37.548 0 0 0 2.816-3.6.079.079 0 0 0 .015-.067c-.011-.026-.03-.03-.072-.034a4.3 4.3 0 0 0-2.552.9.5.5 0 0 1-.7-.076.561.561 0 0 1 .218-.755 9.434 9.434 0 0 1 4.1-1.293.236.236 0 0 0 .181-.1c.586-.752 1.029-1.431 1.653-2.191a16.808 16.808 0 0 1 2.064-2.013 9.244 9.244 0 0 1 1.988-1.3c.149-.077-.019-.17-.064-.17-3.155-.593-6.435-1.361-9.568-.2-2.17.81-3.121 2.531-2.664 3.681.325.816 1.4.948 2.4.457a5.433 5.433 0 0 0 2.153-1.916c.306-.471.951-.131.6.687-.917 2.155-2.669 3.865-4.8 3.937a2.8 2.8 0 0 1-2.984-2.925c.008-3.251 3.627-5.392 7.43-5.713 4.58-.378 8.919.842 13.466 1.394a29.327 29.327 0 0 0 10.328-.374.527.527 0 0 1 .677.592c-.034.6-.5 1.187-1.656 1.816a8.432 8.432 0 0 1-4.117.949c-3.466.03-6.695-1.322-10.036-2.048 0 .146.043.321-.08.413a15.838 15.838 0 0 0-4.643 4.7c-.038.045-.019.088.048.083.972-.052 1.847-.077 2.755-.149.159-.015.165-.053.151-.169a2.258 2.258 0 0 1 .706-1.962 1.317 1.317 0 1 1 2.07 1.629 2.225 2.225 0 0 1-1.345 1.091s-.106.022-.09.118c.019.154.7.534.764.635a.32.32 0 0 1-.077.36.435.435 0 0 1-.332.159.7.7 0 0 1-.339-.125 3.228 3.228 0 0 1-.949-.763c-.087-.11-.131-.112-.35-.1-.982.057-2.514.2-3.553.335-.251.03-.288.078-.34.165a43.45 43.45 0 0 1-5.363 7.643c-2.081 2.113-3.811 2.67-5.648 2.684"/><path id="path749" class="cls-2" d="M90 36.747c-21.577 0-39.066 5.962-39.066 13.258S68.422 63.264 90 63.264s39.064-5.963 39.064-13.259S111.575 36.747 90 36.747m0 27.719c-22.362 0-40.49-6.475-40.49-14.461S67.637 35.544 90 35.544s40.486 6.473 40.486 14.461S112.359 64.466 90 64.466"/></g></svg>