<svg id="Layer_1" data-name="Layer 1" xmlns="http://www.w3.org/2000/svg" width="180" height="100" viewBox="0 0 180 100"><title>honda</title><path id="svg_1" data-name="svg 1" d="M61.546,64.849l1.146.137c.519.054.573.491.573.764v1.337H58V65.75c0-.273.054-.71.573-.764l1.146-.137V63.7H52.894v1.146l1.146.137c.519.054.573.491.573.764v4.422c0,.273-.054.709-.573.764l-1.146.136v1.147h6.823V71.072l-1.146-.136c-.519-.055-.573-.491-.573-.764V68.834h5.24v1.338c0,.273-.054.709-.573.764l-1.146.136v1.147h6.823V71.072L67.2,70.936c-.519-.055-.573-.491-.573-.764V65.75c0-.273.054-.71.573-.764l1.146-.137V63.7H61.519v1.146Z"/><path id="svg_2" data-name="svg 2" d="M106.99,63.7H98.584v1.146l1.01.109a.6.6,0,0,1,.6.683v4.5c0,.273-.054.71-.573.765l-1.146.136v1.146h8.515c3.057,0,5.568-1.228,5.568-4.257S110.047,63.7,106.99,63.7m-.627,6.878H103.5v-5.24h2.866c1.692,0,2.265.791,2.265,2.62,0,1.8-.573,2.62-2.265,2.62"/><path id="svg_3" data-name="svg 3" d="M126.861,70.936a1.1,1.1,0,0,1-.874-.655l-3.93-6.005a.938.938,0,0,0-.9-.573h-6.441v1.146l1.555.164a.444.444,0,0,1,.273.71l-2.92,4.722a.835.835,0,0,1-.6.464l-1.146.136v1.146h5.432V71.045l-.928-.082c-.41-.054-.628-.327-.41-.655l.437-.71h5.24l.382.574c.355.518-.081.737-.464.764l-.955.109v1.146h7.37V71.045ZM117.308,68.1l1.61-2.62,1.719,2.62Z"/><path id="svg_4" data-name="svg 4" d="M92.5,64.849l1.147.137c.518.054.573.491.573.764v4.258l-4.5-5.95c-.191-.273-.382-.355-.873-.355H83v1.146l1.146.137c.519.054.574.491.574.764v4.422c0,.273-.055.709-.574.764L83,71.072v1.147h5.459V71.072l-1.147-.136c-.518-.055-.573-.491-.573-.764V65.914l4.5,5.923c.218.273.382.354.873.354h4.149V65.723c0-.273.054-.71.573-.765l1.146-.136V63.676H92.552L92.5,64.849Z"/><path id="svg_5" data-name="svg 5" d="M75.657,63.4c-5.541,0-6.96,2.429-6.96,4.531s1.419,4.558,6.96,4.558,6.96-2.43,6.96-4.531c0-2.129-1.419-4.558-6.96-4.558m0,7.478c-2.156,0-3.03-.9-3.03-2.92s.9-2.921,3.03-2.921c2.156,0,3.03.9,3.03,2.921s-.874,2.92-3.03,2.92"/><path id="svg_6" data-name="svg 6" d="M99.867,27.811c-.928,4.176-1.31,6.114-2.075,9.116-.737,2.894-1.31,5.6-2.292,6.906a4.38,4.38,0,0,1-3.221,1.719,20.428,20.428,0,0,1-3.657,0A4.378,4.378,0,0,1,85.4,43.833c-.983-1.31-1.556-4.012-2.266-6.906-.764-3.029-1.146-4.94-2.074-9.116,0,0-.928.028-1.337.055-.573.027-1.01.082-1.474.136,0,0,.546,8.6.791,12.255.246,3.822.71,10.29,1.119,15.176a18.262,18.262,0,0,0,2.1.191c1.365.082,1.993.082,1.993.082.573-2.156,1.255-5.131,2.047-6.414a2.771,2.771,0,0,1,2.21-1.229,17.428,17.428,0,0,1,1.966-.136h0a12.458,12.458,0,0,1,1.965.136,2.773,2.773,0,0,1,2.211,1.229c.791,1.283,1.5,4.258,2.047,6.414,0,0,.6,0,1.965-.082,1.31-.082,2.1-.191,2.1-.191.41-4.886.874-11.327,1.119-15.176.246-3.63.792-12.255.792-12.255-.464-.054-.928-.109-1.474-.136-.409-.027-1.337-.055-1.337-.055"/><path id="svg_7" data-name="svg 7" d="M110.7,32.888c-.545-5.459-4.2-6.6-7.4-7.151-1.611-.273-4.476-.491-6.3-.573C95.39,25.055,91.624,25,90.478,25s-4.913.055-6.524.164c-1.828.082-4.694.3-6.3.573-3.193.546-6.85,1.692-7.4,7.151a48.511,48.511,0,0,0-.164,5.513c.054,3.467.355,5.787.518,7.424a35.457,35.457,0,0,0,1.174,6.169A6.888,6.888,0,0,0,74.21,55.76a11.445,11.445,0,0,0,4.749,1.8,89.022,89.022,0,0,0,11.546.628,84.548,84.548,0,0,0,11.545-.628,11.048,11.048,0,0,0,4.749-1.8,6.883,6.883,0,0,0,2.43-3.766,35.818,35.818,0,0,0,1.173-6.169c.164-1.61.464-3.957.519-7.424-.027-2.1-.082-4.039-.219-5.513m-2.019,9.171a45.576,45.576,0,0,1-1.256,8.87,7.308,7.308,0,0,1-1.965,3.549,8.77,8.77,0,0,1-4.7,1.8,83.477,83.477,0,0,1-10.289.519,83.2,83.2,0,0,1-10.29-.519,8.77,8.77,0,0,1-4.7-1.8,7.438,7.438,0,0,1-1.965-3.549,43.531,43.531,0,0,1-1.256-8.87,56.61,56.61,0,0,1,.137-9.171c.409-3.439,2.1-5.159,5.732-5.786a53.215,53.215,0,0,1,6.141-.628c1.747-.109,4.585-.164,6.2-.164,1.583-.027,4.448.055,6.168.164a53.215,53.215,0,0,1,6.141.628c3.63.655,5.323,2.374,5.759,5.786a56.5,56.5,0,0,1,.137,9.171"/></svg>