<svg id="Layer_1" data-name="Layer 1" xmlns="http://www.w3.org/2000/svg" width="180" height="100"><defs><style>.cls-1{fill:#231f20}</style></defs><g id="g2993"><g id="g3045"><path id="path3047" class="cls-1" d="M126.537 51.493c-.089 4.907.971 7.507 5.017 7.507s4.618-4.428 4.618-7.8-.766-6.645-5.01-6.645c-2.603.002-4.525 2.025-4.625 6.938zM118.353 72V38.781h8.284v1.348c0 1.8.725 1.056 1.309.356.1-.118 1.944-2.377 6.1-2.377S144.643 41 144.643 51.2c0 7.9-3.847 13.671-10.492 13.671-3.662 0-5.778-1.441-6.262-2.023s-1.158-.674-1.158 0V72h-8.378"/></g><g id="g3049"><path id="path3051" class="cls-1" d="M54.323 28h8.955v23.493c0 4.041-1.735 12.516-14.154 12.516s-13.767-7.9-13.767-12.325v-4.332h8.666v4.234a4.794 4.794 0 0 0 5 5.005c3.273 0 5.3-1.828 5.3-4.907V28"/></g><g id="g3053"><path id="path3055" class="cls-1" d="M82.006 47.929c0-2.409-1.345-4.72-4.426-4.72-2.985 0-4.045 2.116-4.045 4.72zm-5.29-10.11c7.032 0 13.192 2.7 13.192 15.115H73.252c0 3.948 1.636 5.585 4.524 5.585a4.133 4.133 0 0 0 3.851-2.312h8.187c0 3.563-4.912 8.377-12.327 8.282-8.47 0-12.611-6.259-12.611-12.71s3.656-13.96 11.84-13.96"/></g><g id="g3057"><path id="path3059" class="cls-1" d="M108.632 47.929c0-2.409-1.347-4.72-4.428-4.72-2.984 0-4.046 2.116-4.046 4.72zm-5.29-10.11c7.031 0 13.189 2.7 13.189 15.115H99.877c0 3.948 1.636 5.585 4.527 5.585a4.136 4.136 0 0 0 3.85-2.312h8.186c0 3.563-4.912 8.377-12.325 8.282-8.475 0-12.616-6.259-12.616-12.71s3.661-13.96 11.843-13.96"/></g><g id="g3061"><path id="path3063" class="cls-1" d="M139.16 68.018a2.388 2.388 0 1 1 2.391 2.388 2.389 2.389 0 0 1-2.391-2.388zm-.276 0a2.666 2.666 0 1 0 2.667-2.667 2.665 2.665 0 0 0-2.667 2.667"/></g><g id="g3065"><path id="path3067" class="cls-1" d="M142.619 69.381l-.554-1.307a.659.659 0 0 0 .328-.2.8.8 0 0 0-.69-1.316h-1.112v2.827h.33v-1.228h.8l.528 1.224zm-1.707-1.511v-1.008h.784a.475.475 0 0 1 .536.476.517.517 0 0 1-.582.532h-.738"/></g></g></svg>