<svg data-name="Layer 1" xmlns="http://www.w3.org/2000/svg" width="180" height="100"><path fill="#eb0a1e" d="M37.25 35.1h29v29.8h-29z"/><path d="M134.75 51l1.6-4.4 1.6 4.4zm3.3-6.9h-3.4l-4.7 11.9h2.9l1.1-2.9h4.8l1.1 2.9h2.9zm-23.9 9.8a3.793 3.793 0 0 1-3.5-4 3.76 3.76 0 0 1 1.6-3.4 3.48 3.48 0 0 1 5.3 3.4 3.7 3.7 0 0 1-.9 2.7 3.108 3.108 0 0 1-2.5 1.3zm.1-10.2a6.168 6.168 0 0 0-6.1 6.3 6.215 6.215 0 0 0 5.9 6.4 6.147 6.147 0 0 0 6.4-5.9V50a6.253 6.253 0 0 0-6.2-6.3zm-24.2 10.2a3.793 3.793 0 0 1-3.5-4 3.76 3.76 0 0 1 1.6-3.4 3.48 3.48 0 0 1 5.3 3.4 3.7 3.7 0 0 1-.9 2.7 3.436 3.436 0 0 1-2.5 1.3zm0-10.2a6.306 6.306 0 0 0-5.7 3.9 6.536 6.536 0 0 0 1.3 6.9 6.165 6.165 0 0 0 6.7 1.4 6.351 6.351 0 0 0 3.8-5.8 6.133 6.133 0 0 0-6.1-6.4zm15.1.4l-3 4.8-2.9-4.8h-3l4.6 7.5v4.5h2.5v-4.5l4.7-7.5zm25.4 0h-9.9v2.3h3.7V56h2.6v-9.7h3.6zm-57 2.3h3.7V56h2.6v-9.7h3.7v-2.2h-9.9v2.3z"/><path d="M51.75 43.2c-5.5 0-9.7 2.9-9.7 6.8s4.1 6.8 9.7 6.8 9.6-3 9.6-6.8-4.1-6.8-9.6-6.8m6 2.9c.2.8-.7 1.9-3.8 2.2-.2-2.1-.8-3.9-1.8-4.3a12.171 12.171 0 0 1 3.8.7c1 .5 1.7 1 1.8 1.4m-4.5 3.9c0 2.7-.8 3.8-1.5 3.8s-1.5-1.1-1.5-3.8c.5 0 1 .1 1.5.1s1-.1 1.5-.1m-1.5-1.5h-1.4c.2-1.8.9-2.8 1.4-2.8s1.2 1 1.4 2.8h-1.4m-6-2.3c.1-.4.8-.9 1.8-1.4a12.171 12.171 0 0 1 3.8-.7c-1 .4-1.6 2.2-1.8 4.3-3-.3-4-1.4-3.8-2.2m-2.2 3.6a4.271 4.271 0 0 1 1-2.9c.1 1.5 2.1 2.6 4.9 3v.1c0 3.7.9 5.6 1.9 6-4.3-.2-7.9-3-7.8-6.2m8.6 6.1c1-.4 2-2.5 2-6v-.1c2.8-.4 4.8-1.5 4.9-3a4.451 4.451 0 0 1 1 2.9c-.1 3.4-3.6 6.1-7.9 6.2" fill="#fff"/></svg>